<svg id="visual" viewBox="0 0 900 600" width="900" height="600" xmlns="http://www.w3.org/2000/svg" xmlns:xlink="http://www.w3.org/1999/xlink" version="1.1"><rect x="0" y="0" width="900" height="600" fill="#000000"></rect><defs><linearGradient id="grad1_0" x1="33.3%" y1="0%" x2="100%" y2="100%"><stop offset="20%" stop-color="#475f72" stop-opacity="1"></stop><stop offset="80%" stop-color="#475f72" stop-opacity="1"></stop></linearGradient></defs><defs><linearGradient id="grad1_1" x1="33.3%" y1="0%" x2="100%" y2="100%"><stop offset="20%" stop-color="#475f72" stop-opacity="1"></stop><stop offset="80%" stop-color="#193243" stop-opacity="1"></stop></linearGradient></defs><defs><linearGradient id="grad1_2" x1="33.3%" y1="0%" x2="100%" y2="100%"><stop offset="20%" stop-color="#000000" stop-opacity="1"></stop><stop offset="80%" stop-color="#193243" stop-opacity="1"></stop></linearGradient></defs><defs><linearGradient id="grad2_0" x1="0%" y1="0%" x2="66.7%" y2="100%"><stop offset="20%" stop-color="#475f72" stop-opacity="1"></stop><stop offset="80%" stop-color="#475f72" stop-opacity="1"></stop></linearGradient></defs><defs><linearGradient id="grad2_1" x1="0%" y1="0%" x2="66.7%" y2="100%"><stop offset="20%" stop-color="#193243" stop-opacity="1"></stop><stop offset="80%" stop-color="#475f72" stop-opacity="1"></stop></linearGradient></defs><defs><linearGradient id="grad2_2" x1="0%" y1="0%" x2="66.7%" y2="100%"><stop offset="20%" stop-color="#193243" stop-opacity="1"></stop><stop offset="80%" stop-color="#000000" stop-opacity="1"></stop></linearGradient></defs><g transform="translate(900, 0)"><path d="M0 540.8C-46.3 478.7 -92.7 416.6 -166.1 401C-239.5 385.3 -340 416 -382.4 382.4C-424.8 348.8 -409.2 250.9 -425.9 176.4C-442.6 102 -491.7 51 -540.8 0L0 0Z" fill="#011d2d"></path><path d="M0 360.6C-30.9 319.2 -61.8 277.8 -110.7 267.3C-159.7 256.9 -226.7 277.4 -255 255C-283.2 232.5 -272.8 167.3 -283.9 117.6C-295.1 68 -327.8 34 -360.6 0L0 0Z" fill="#30485a"></path><path d="M0 180.3C-15.4 159.6 -30.9 138.9 -55.4 133.7C-79.8 128.4 -113.3 138.7 -127.5 127.5C-141.6 116.3 -136.4 83.6 -142 58.8C-147.5 34 -163.9 17 -180.3 0L0 0Z" fill="#475f72"></path></g><g transform="translate(0, 600)"><path d="M0 -540.8C54.3 -498.4 108.5 -456 181.4 -437.9C254.2 -419.8 345.7 -426 382.4 -382.4C419.2 -338.8 401.2 -245.4 418.5 -173.4C435.8 -101.3 488.3 -50.7 540.8 0L0 0Z" fill="#011d2d"></path><path d="M0 -360.6C36.2 -332.3 72.4 -304 120.9 -291.9C169.5 -279.9 230.5 -284 255 -255C279.4 -225.9 267.5 -163.6 279 -115.6C290.5 -67.5 325.5 -33.8 360.6 0L0 0Z" fill="#30485a"></path><path d="M0 -180.3C18.1 -166.1 36.2 -152 60.5 -146C84.7 -139.9 115.2 -142 127.5 -127.5C139.7 -112.9 133.7 -81.8 139.5 -57.8C145.3 -33.8 162.8 -16.9 180.3 0L0 0Z" fill="#475f72"></path></g></svg>